<svg width="21" height="21" viewBox="0 0 21 21" fill="none" xmlns="http://www.w3.org/2000/svg">
<g clip-path="url(#clip0)">
<path d="M15.5599 9.72161L6.65967 0.821524C6.45382 0.615509 6.17902 0.502014 5.88602 0.502014C5.59301 0.502014 5.31822 0.615509 5.11236 0.821524L4.45692 1.4768C4.03042 1.90379 4.03042 2.59777 4.45692 3.02411L11.9307 10.4979L4.44863 17.9799C4.24278 18.1859 4.12912 18.4606 4.12912 18.7534C4.12912 19.0466 4.24278 19.3212 4.44863 19.5274L5.10407 20.1825C5.31009 20.3885 5.58472 20.502 5.87772 20.502C6.17073 20.502 6.44552 20.3885 6.65138 20.1825L15.5599 11.2743C15.7663 11.0676 15.8796 10.7917 15.8789 10.4984C15.8796 10.2039 15.7663 9.92812 15.5599 9.72161Z" fill="white"/>
</g>
<defs>
<clipPath id="clip0">
<rect width="20" height="20" fill="white" transform="translate(0.00402832 0.502014)"/>
</clipPath>
</defs>
</svg>
