<svg width="21" height="21" viewBox="0 0 21 21" fill="none" xmlns="http://www.w3.org/2000/svg">
<g clip-path="url(#clip0)">
<path d="M4.44813 11.2824L13.3484 20.1825C13.5542 20.3885 13.829 20.502 14.122 20.502C14.415 20.502 14.6898 20.3885 14.8957 20.1825L15.5511 19.5272C15.9776 19.1002 15.9776 18.4063 15.5511 17.9799L8.07737 10.5062L15.5594 3.02411C15.7653 2.81809 15.8789 2.54346 15.8789 2.25062C15.8789 1.95745 15.7653 1.68282 15.5594 1.47664L14.904 0.821523C14.698 0.615508 14.4233 0.502014 14.1303 0.502014C13.8373 0.502014 13.5625 0.615508 13.3567 0.821523L4.44813 9.72974C4.24179 9.93641 4.12846 10.2123 4.12911 10.5057C4.12846 10.8001 4.24179 11.0759 4.44813 11.2824Z" fill="white"/>
</g>
<defs>
<clipPath id="clip0">
<rect width="20" height="20" fill="white" transform="translate(20.004 20.502) rotate(-180)"/>
</clipPath>
</defs>
</svg>
